<?xml version="1.0" standalone="no"?>
<svg viewBox="0 0 200 200" xmlns="http://www.w3.org/2000/svg">
  <path fill="#000" d="M45.5,-71C59.2,-61.9,71,-49.8,79.5,-35.1C88.1,-20.4,93.5,-3.1,91.8,13.7C90.1,30.4,81.4,46.7,69.2,58.9C56.9,71,41.3,79.2,24.5,84.5C7.8,89.9,-10.1,92.5,-26.6,88.6C-43.2,84.7,-58.5,74.3,-69.9,60.8C-81.4,47.2,-89,30.6,-91.6,13.1C-94.1,-4.3,-91.6,-22.5,-83.9,-38C-76.3,-53.4,-63.5,-66.2,-48.7,-74.8C-33.9,-83.5,-16.9,-87.9,-0.5,-87.1C15.8,-86.2,31.7,-80.1,45.5,-71Z" transform="translate(100 100)" />
</svg>
